<?xml version="1.0" encoding="iso-8859-1"?>
<!-- Generator: Adobe Illustrator 19.0.0, SVG Export Plug-In . SVG Version: 6.00 Build 0)  -->
<svg version="1.1" id="Layer_1" xmlns="http://www.w3.org/2000/svg" xmlns:xlink="http://www.w3.org/1999/xlink" x="0px" y="0px"
	 viewBox="0 0 512 512" style="enable-background:new 0 0 512 512;" xml:space="preserve">
<circle style="fill:#FF5B62;" cx="256" cy="256" r="256"/>
<ellipse style="fill:#ED4C54;" cx="256" cy="448.933" rx="144.538" ry="14.369"/>
<path style="fill:#666666;" d="M68.921,101.391h374.162c12.291,0,22.35,10.055,22.35,22.35v230.486H46.576V123.741
	c0-12.291,10.059-22.35,22.35-22.35C68.926,101.391,68.921,101.391,68.921,101.391z"/>
<path style="fill:#21D0C3;" d="M61.743,339.055h388.508V123.741c0-3.916-3.257-7.173-7.173-7.173H68.916
	c-3.916,0-7.173,3.257-7.173,7.173C61.743,123.741,61.743,339.055,61.743,339.055z"/>
<g>
	<path style="fill:#FFFFFF;" d="M465.429,354.227v24.442c0,12.295-11.085,22.35-24.637,22.35H71.208
		c-13.552,0-24.637-10.055-24.637-22.35v-24.442H465.429z"/>
	<path style="fill:#FFFFFF;" d="M139.949,49.998H329.11l42.941,42.941v246.111H139.945V49.998H139.949z"/>
</g>
<path style="fill:#FAD24D;" d="M329.11,49.998l42.941,42.941H329.11V49.998z"/>
<path style="fill:#ECF0F1;" d="M372.051,135.88L329.11,92.938h42.941L372.051,135.88L372.051,135.88z"/>
<path style="fill:#21D0C3;" d="M335.66,317.121l-10.244-19.556l13.903-7.279l-42.105-33.172l3.289,53.5l13.903-7.279l10.244,19.556
	L335.66,317.121z"/>
<path style="fill:#FAD24D;" d="M257.866,254.79c-1.275-0.587-1.833-2.097-1.247-3.376c0.587-1.275,2.097-1.833,3.371-1.248
	l18.383,8.475c1.275,0.587,1.833,2.097,1.248,3.371c-0.587,1.275-2.097,1.833-3.371,1.252L257.866,254.79z M279.551,277.015
	c1.257-0.628,2.781-0.116,3.404,1.136c0.628,1.252,0.12,2.781-1.136,3.404l-25.643,12.803c-1.252,0.628-2.781,0.12-3.404-1.136
	c-0.628-1.252-0.116-2.781,1.136-3.404L279.551,277.015z M350.45,244.218c1.252-0.628,2.781-0.116,3.404,1.136
	c0.628,1.257,0.116,2.781-1.136,3.404l-25.644,12.803c-1.252,0.628-2.781,0.116-3.404-1.136c-0.628-1.257-0.116-2.781,1.136-3.404
	L350.45,244.218z M316.363,224.893c0.272-1.376,1.612-2.268,2.984-1.995c1.376,0.272,2.273,1.612,1.995,2.988l-3.958,19.856
	c-0.272,1.376-1.612,2.268-2.988,1.995s-2.268-1.612-1.995-2.984l3.958-19.856L316.363,224.893z M279.173,221.599
	c-0.527-1.302,0.106-2.786,1.404-3.307c1.302-0.527,2.786,0.102,3.308,1.404l10.896,27.07c0.527,1.297-0.102,2.781-1.404,3.307
	c-1.297,0.527-2.781-0.102-3.307-1.404L279.173,221.599z"/>
<path style="fill:#DCE3DB;" d="M157.93,113.441h177.403v4.872H157.93V113.441z M157.93,165.925L157.93,165.925h177.403v4.877H157.93
	V165.925z M157.93,174.963L157.93,174.963h177.403v4.872H157.93V174.963z M157.93,184.003L157.93,184.003h177.403v4.872H157.93
	V184.003z M157.93,193.042L157.93,193.042h177.411v4.872H157.93V193.042z M157.93,122.481L157.93,122.481h177.403v4.872H157.93
	V122.481z M157.93,131.519L157.93,131.519h177.403v4.872H157.93V131.519z M157.93,140.558L157.93,140.558h177.411v4.872H157.93
	V140.558z M157.93,149.598L157.93,149.598h135.889v4.872H157.93V149.598z M157.93,202.08L157.93,202.08h135.889v4.872H157.93V202.08
	z"/>
<circle style="fill:#B6B6B8;" cx="256" cy="376.265" r="7.815"/>
<path style="fill:#C2C2C4;" d="M305.065,436.737l36.096,11.565H170.839l29.121-11.565v-35.712h105.105V436.737z"/>
<path style="fill:#B0B0B0;" d="M305.065,436.737L199.96,401.025h105.105V436.737z"/>
<path style="fill:#ECF0F1;" d="M199.96,436.737h105.105l36.096,11.565v4.983H256h-85.166v-4.983l29.121-11.565H199.96z"/>
<g>
</g>
<g>
</g>
<g>
</g>
<g>
</g>
<g>
</g>
<g>
</g>
<g>
</g>
<g>
</g>
<g>
</g>
<g>
</g>
<g>
</g>
<g>
</g>
<g>
</g>
<g>
</g>
<g>
</g>
</svg>
